<svg width="150" height="150" viewBox="0 0 150 150" fill="none" xmlns="http://www.w3.org/2000/svg">
<rect width="150" height="150" fill="#D9D9D9"/>
<path d="M23.6756 97.0493C23.6756 68.4611 46.851 45.2858 75.4392 45.2858C104.027 45.2858 127.203 68.4611 127.203 97.0493C127.203 125.638 95.0385 80.6214 66.4503 80.6214C37.8621 80.6214 23.6756 125.638 23.6756 97.0493Z" fill="#72AAAA"/>
<path d="M23.7864 53.0086C44.0014 32.7936 76.7763 32.7936 96.9912 53.0086C117.206 73.2235 117.206 105.998 96.9912 126.213C76.7762 146.428 85.864 91.8534 65.649 71.6385C45.4341 51.4236 3.57151 73.2235 23.7864 53.0086Z" fill="#4B7575"/>
<path d="M52.291 24.131C80.8792 24.131 104.055 47.3063 104.055 75.8946C104.055 104.483 80.8792 127.658 52.291 127.658C23.7028 127.658 68.719 95.4939 68.719 66.9057C68.719 38.3175 23.7028 24.131 52.291 24.131Z" fill="#4B5775"/>
<path d="M96.3318 24.2421C116.547 44.4571 116.547 77.2319 96.3318 97.4469C76.1168 117.662 43.342 117.662 23.127 97.4469C2.91211 77.2319 57.4869 86.3196 77.7018 66.1047C97.9168 45.8898 76.1168 4.0272 96.3318 24.2421Z" fill="#FF0000"/>
<path d="M125.209 52.7464C125.209 81.3346 102.034 104.51 73.4458 104.51C44.8576 104.51 21.6823 81.3346 21.6823 52.7464C21.6823 24.1582 53.8465 69.1743 82.4347 69.1743C111.023 69.1743 125.209 24.1582 125.209 52.7464Z" fill="black"/>
</svg>
