<svg width="57" height="57" viewBox="0 0 57 57" fill="none" xmlns="http://www.w3.org/2000/svg">
<path d="M28.5 57C44.2401 57 57 44.2401 57 28.5C57 12.7599 44.2401 0 28.5 0C12.7599 0 0 12.7599 0 28.5C0 44.2401 12.7599 57 28.5 57Z" fill="#24BECA"/>
<path d="M40.6125 38.3862C39.0985 40.4347 37.1391 42.5722 34.5563 44.1753C32.0625 45.7784 29.2125 47.0253 25.8282 47.0253C22.711 47.0253 20.1282 45.4222 18.7032 44.0862C16.5657 42.0378 15.4078 39.0987 15.0516 36.3378C13.9828 27.7878 19.2375 16.4769 27.3422 11.5784C29.2125 10.4206 31.261 9.88623 33.2203 9.88623C37.1391 9.88623 40.0782 12.6472 40.4344 16.0315C40.7907 19.0597 39.6328 21.6425 36.2485 23.3347C34.5563 24.2253 33.6657 24.1362 33.3985 23.78C33.2203 23.5128 33.3094 23.0675 33.6657 22.8003C36.7828 20.2175 36.8719 18.08 36.5157 15.0519C36.2485 13.0925 35.0016 11.8456 33.5766 11.8456C27.4313 11.8456 18.525 25.6503 19.7719 35.6253C20.2172 39.544 22.6219 44.0862 27.6094 44.0862C29.2125 44.0862 30.9938 43.6409 32.5078 42.8394C35.9813 41.0581 37.4953 39.8112 39.5438 36.9612C39.811 36.605 40.0782 36.1597 40.3453 35.8034C40.5235 35.4472 40.8797 35.3581 41.1469 35.3581C41.4141 35.3581 41.7703 35.6253 41.7703 36.0706C41.7703 36.3378 41.6813 36.8722 41.325 37.3175C41.236 37.4956 40.9688 38.03 40.6125 38.3862Z" fill="white"/>
</svg>
