<svg width="405" height="473" viewBox="0 0 405 473" fill="none" xmlns="http://www.w3.org/2000/svg">
<g id="Group 1">
<path id="Ellipse 5" d="M0.971558 236.14C0.971558 143.908 75.74 69.1396 167.972 69.1396C260.203 69.1396 334.972 143.908 334.972 236.14C334.972 328.371 231.203 183.14 138.972 183.14C46.74 183.14 0.971558 328.371 0.971558 236.14Z" fill="#72AAAA"/>
<path id="Ellipse 4" d="M50.543 118.115C115.761 52.8977 221.499 52.8977 286.717 118.115C351.934 183.333 351.934 289.071 286.717 354.289C221.499 419.506 250.818 243.437 185.6 178.219C120.383 113.002 -14.6745 183.333 50.543 118.115Z" fill="#4B7575"/>
<path id="Ellipse 3" d="M168.804 69.9716C261.035 69.9716 335.804 144.74 335.804 236.972C335.804 329.203 261.035 403.972 168.804 403.972C76.572 403.972 221.804 300.203 221.804 207.972C221.804 115.74 76.572 69.9716 168.804 69.9716Z" fill="#4B5775"/>
<path id="Ellipse 2" d="M286.885 118.543C352.102 183.761 352.102 289.499 286.885 354.717C221.667 419.934 115.929 419.934 50.7111 354.717C-14.5065 289.499 161.563 318.818 226.781 253.6C291.998 188.383 221.667 53.3255 286.885 118.543Z" fill="#FF0000"/>
<path id="Ellipse 1" d="M336 237C336 329.232 261.232 404 169 404C76.7684 404 2 329.232 2 237C2 144.768 105.768 290 198 290C290.232 290 336 144.768 336 237Z" fill="black"/>
</g>
</svg>
