<svg width="150" height="150" viewBox="0 0 150 150" fill="none" xmlns="http://www.w3.org/2000/svg">
<rect width="150" height="150" fill="#D9D9D9"/>
<path d="M25 75.5C25 68.9996 26.2804 62.5628 28.768 56.5572C31.2556 50.5516 34.9017 45.0947 39.4982 40.4982C44.0947 35.9017 49.5516 32.2556 55.5572 29.768C61.5628 27.2804 67.9996 26 74.5 26" stroke="#DC1B1B" stroke-width="15"/>
<path d="M74.5 26C81.0004 26 87.4372 27.2804 93.4428 29.768C99.4484 32.2556 104.905 35.9017 109.502 40.4982C114.098 45.0947 117.744 50.5516 120.232 56.5572C122.72 62.5628 124 68.9996 124 75.5" stroke="#C28D05" stroke-width="15"/>
<path d="M87.6029 75.5C87.6029 82.0004 86.3225 88.4372 83.8349 94.4428C81.3473 100.448 77.7012 105.905 73.1047 110.502C68.5082 115.098 63.0513 118.744 57.0457 121.232C51.0401 123.72 44.6033 125 38.1029 125" stroke="#4B5775" stroke-width="15"/>
<path d="M110.897 125C104.397 125 97.9599 123.72 91.9543 121.232C85.9486 118.744 80.4918 115.098 75.8953 110.502C71.2988 105.905 67.6527 100.448 65.1651 94.4428C62.6775 88.4372 61.3971 82.0004 61.3971 75.5" stroke="#4B7575" stroke-width="15"/>
<path d="M77.1397 79C77.1397 79.675 77.0068 80.3433 76.7485 80.9669C76.4902 81.5905 76.1116 82.1571 75.6343 82.6343C75.1571 83.1116 74.5905 83.4902 73.9669 83.7485C73.3433 84.0068 72.675 84.1397 72 84.1397" stroke="#4B5775" stroke-width="0.8"/>
<path d="M72 79.0001C72.675 79.0001 73.3433 79.133 73.9669 79.3913C74.5905 79.6496 75.1571 80.0282 75.6343 80.5055C76.1116 80.9827 76.4902 81.5493 76.7485 82.1729C77.0068 82.7965 77.1397 83.4648 77.1397 84.1398" stroke="#C28D05" stroke-width="0.8"/>
<path d="M72.0001 84.1398C72.0001 83.4648 72.133 82.7965 72.3913 82.1729C72.6496 81.5493 73.0282 80.9827 73.5055 80.5055C73.9827 80.0282 74.5493 79.6496 75.1729 79.3913C75.7965 79.133 76.4648 79.0001 77.1398 79.0001" stroke="#DC1B1B" stroke-width="0.8"/>
<path d="M77.1398 84.1397C76.4648 84.1397 75.7965 84.0068 75.1729 83.7485C74.5493 83.4902 73.9827 83.1116 73.5055 82.6343C73.0282 82.1571 72.6496 81.5905 72.3913 80.9669C72.133 80.3433 72.0001 79.675 72.0001 79" stroke="#4B7575" stroke-width="0.8"/>
</svg>
