<svg width="150" height="150" viewBox="0 0 150 150" fill="none" xmlns="http://www.w3.org/2000/svg">
<rect width="150" height="150" fill="#D9D9D9"/>
<path d="M126.5 22C126.5 35.5262 123.836 48.9199 118.66 61.4164C113.483 73.9129 105.896 85.2676 96.332 94.832C86.7676 104.396 75.4129 111.983 62.9164 117.16C50.4199 122.336 37.0262 125 23.5 125" stroke="#4B5775" stroke-width="10"/>
<path d="M23.5 22C37.0262 22 50.4199 24.6642 62.9164 29.8404C75.4129 35.0166 86.7676 42.6036 96.332 52.168C105.896 61.7324 113.483 73.0871 118.66 85.5836C123.836 98.0801 126.5 111.474 126.5 125" stroke="#C28D05" stroke-width="10"/>
<path d="M23.5 125C23.5 111.474 26.1642 98.0801 31.3404 85.5836C36.5166 73.0871 44.1036 61.7324 53.668 52.168C63.2324 42.6036 74.5871 35.0166 87.0836 29.8404C99.5801 24.6642 112.974 22 126.5 22" stroke="#DC1B1B" stroke-width="10"/>
<path d="M126.5 125C112.974 125 99.5801 122.336 87.0836 117.16C74.5871 111.983 63.2324 104.396 53.668 94.832C44.1036 85.2676 36.5166 73.9129 31.3404 61.4164C26.1642 48.9199 23.5 35.5262 23.5 22" stroke="#4B7575" stroke-width="10"/>
<path d="M82.9292 67C82.9292 69.0919 82.5172 71.1632 81.7167 73.0958C80.9161 75.0285 79.7428 76.7845 78.2636 78.2636C76.7845 79.7428 75.0285 80.9161 73.0958 81.7167C71.1632 82.5172 69.0919 82.9292 67 82.9292" stroke="#4B5775" stroke-width="2"/>
<path d="M67 66.9998C69.0919 66.9998 71.1632 67.4118 73.0958 68.2123C75.0285 69.0128 76.7845 70.1861 78.2636 71.6653C79.7428 73.1445 80.9161 74.9005 81.7167 76.8331C82.5172 78.7657 82.9292 80.8371 82.9292 82.929" stroke="#C28D05" stroke-width="2"/>
<path d="M67.0001 82.929C67.0001 80.8371 67.4121 78.7657 68.2126 76.8331C69.0131 74.9005 70.1864 73.1445 71.6656 71.6653C73.1448 70.1861 74.9008 69.0128 76.8334 68.2123C78.766 67.4118 80.8374 66.9998 82.9293 66.9998" stroke="#DC1B1B" stroke-width="2"/>
<path d="M82.9293 82.9292C80.8374 82.9292 78.766 82.5172 76.8334 81.7167C74.9008 80.9161 73.1448 79.7428 71.6656 78.2636C70.1864 76.7845 69.0131 75.0285 68.2126 73.0958C67.4121 71.1632 67.0001 69.0919 67.0001 67" stroke="#4B7575" stroke-width="2"/>
</svg>
