<svg width="38" height="57" viewBox="0 0 38 57" fill="none" xmlns="http://www.w3.org/2000/svg">
<path d="M9.5 57C14.744 57 19 52.744 19 47.5V38H9.5C4.256 38 0 42.256 0 47.5C0 52.744 4.256 57 9.5 57Z" fill="#0ACF83"/>
<path d="M0 28.4997C0 23.2557 4.256 18.9998 9.5 18.9998H19V37.9997H9.5C4.256 37.9997 0 33.7437 0 28.4997Z" fill="#A259FF"/>
<path d="M0 9.49998C0 4.25599 4.256 0 9.5 0H19V19H9.5C4.256 19 0 14.744 0 9.49998Z" fill="#F24E1E"/>
<path d="M19 0H28.5C33.744 0 38 4.25599 38 9.49998C38 14.744 33.744 19 28.5 19H19V0Z" fill="#FF7262"/>
<path d="M38 28.4997C38 33.7437 33.744 37.9997 28.5 37.9997C23.256 37.9997 19 33.7437 19 28.4997C19 23.2557 23.256 18.9998 28.5 18.9998C33.744 18.9998 38 23.2557 38 28.4997Z" fill="#1ABCFE"/>
</svg>
