<svg width="380" height="380" viewBox="0 0 380 380" fill="none" xmlns="http://www.w3.org/2000/svg">
<g id="FirstChange">
<path id="mainRect" d="M0 0H380V380H0V0Z" fill="#D9D9D9"/>
<path id="chnageMe" d="M223.423 134.285C223.423 169.816 234.353 189 198.659 189C162.965 189 166.042 183.044 166.042 147.513C166.042 111.981 156.925 94 192.619 94C228.313 94 223.423 98.7533 223.423 134.285Z" fill="#471919"/>
<g id="Group 2">
<path id="Ellipse 8" d="M145.512 180.283C143.85 185.005 145.904 179.701 140.19 177.69C134.476 175.679 130.261 182.856 131.923 178.133C133.585 173.411 136.666 167.329 142.379 169.34C148.093 171.351 147.175 175.56 145.512 180.283Z" fill="#D58B47"/>
<path id="hand" d="M158.244 141.415C149.652 162.239 146.828 174.231 140.899 171.785C134.97 169.338 136.921 166.059 145.514 145.235C154.107 124.411 156.941 113.248 162.87 115.695C168.799 118.141 166.837 120.592 158.244 141.415Z" fill="#471919"/>
</g>
<path id="Ellipse 8_2" d="M222.623 289.1C231.756 289.55 243.115 284.74 242.571 295.789C242.027 306.838 237.491 305.622 228.359 305.172C219.227 304.722 206.977 302.499 207.521 291.45C208.065 280.401 213.491 288.65 222.623 289.1Z" fill="#D58B47"/>
<path id="Ellipse 9" d="M172.129 287.898C181.261 288.347 192.621 283.537 192.077 294.586C191.533 305.635 186.997 304.419 177.865 303.97C168.733 303.52 156.483 301.296 157.027 290.247C157.571 279.199 162.997 287.448 172.129 287.898Z" fill="#D58B47"/>
<g id="Group 3">
<path id="Ellipse 7" d="M252.887 177.242C254.243 182.062 252.872 176.541 247.041 178.182C241.211 179.823 241.89 188.119 240.534 183.299C239.177 178.48 238.199 171.734 244.03 170.093C249.861 168.452 251.53 172.423 252.887 177.242Z" fill="#D58B47"/>
<path id="hand_2" d="M231.534 150.441C223.766 129.296 217.728 118.557 223.749 116.345C229.769 114.134 230.552 117.869 238.321 139.014C246.089 160.159 251.558 170.295 245.537 172.507C239.517 174.718 239.302 171.587 231.534 150.441Z" fill="#471919"/>
</g>
<path id="pantaloni" d="M216.517 288.98C208.722 288.597 205.3 251.715 199.105 252.16C190.476 252.78 187.697 287.169 164.281 286.565C155.987 284.464 158.295 243.329 158.295 226.436C158.295 190.766 164.242 193.841 199.724 193.841C228.526 193.008 232.747 187.575 232.747 220.4C232.747 256.069 236.331 289.953 216.517 288.98Z" fill="#6B6B6B"/>
<path id="Ellipse 6" d="M212 73.5238C212 81.098 204.389 88 195 88C185.611 88 178 81.098 178 73.5238C178 65.9496 185.611 56 195 56C204.389 56 212 65.9496 212 73.5238Z" fill="#D58B47"/>
</g>
</svg>
