<svg width="407" height="425" viewBox="0 0 407 425" fill="none" xmlns="http://www.w3.org/2000/svg">
<path d="M406.127 217.57C406.127 329.719 315.212 420.634 203.063 420.634C90.9146 420.634 0 329.719 0 217.57C0 105.421 110.047 -21.3024 151.97 100.972C256.777 537.668 406.127 105.421 406.127 217.57Z" fill="white"/>
<path d="M407 218.596C407 330.744 316.085 421.659 203.936 421.659C91.7876 421.659 0.873047 330.744 0.873047 218.596C0.873047 106.447 0.873047 477.556 203.936 218.596C259.753 147.414 407 106.447 407 218.596Z" fill="#F94C2C"/>
<path d="M406.127 221.271C406.127 333.42 315.212 424.334 203.063 424.334C90.9146 424.334 0 333.42 0 221.271C0 109.122 90.9146 335.248 203.063 335.248C315.212 335.248 406.127 109.122 406.127 221.271Z" fill="#E61011"/>
<path fill-rule="evenodd" clip-rule="evenodd" d="M225 31.4999L224.995 31.4999L224.981 31.5001L224.957 31.5007L224.924 31.5019L224.882 31.5038L224.83 31.5067L224.769 31.5107L224.699 31.516L224.619 31.5228L224.53 31.5312L224.432 31.5416L224.325 31.5539L224.209 31.5685L224.084 31.5855L223.951 31.605L223.808 31.6273L223.657 31.6524L223.498 31.6806L223.33 31.7121L223.154 31.7469L222.969 31.7852L222.777 31.8273L222.576 31.8731L222.368 31.923L222.153 31.9769L221.929 32.0351L221.699 32.0977L221.461 32.1647L221.217 32.2364L220.965 32.3128L220.707 32.3941L220.442 32.4804L220.171 32.5717L219.894 32.6682L219.611 32.7699L219.322 32.8769L219.028 32.9894L218.728 33.1074L218.423 33.2309L218.114 33.3601L217.799 33.4949L217.48 33.6355L217.157 33.7819L216.829 33.9341L216.498 34.0921L216.163 34.2561L215.824 34.4259L215.482 34.6017L215.138 34.7834L214.79 34.9711L214.44 35.1646L214.087 35.3642L213.733 35.5696L213.376 35.7809L213.018 35.9981L212.658 36.2211L212.297 36.4499L211.935 36.6844L211.573 36.9247L211.209 37.1705L210.846 37.422L210.482 37.6789L210.118 37.9413L209.755 38.2089L209.392 38.4819L209.03 38.76L208.669 39.0431L208.309 39.3312L207.951 39.6241L207.594 39.9218L207.238 40.224L206.885 40.5307L206.534 40.8418L206.185 41.157L205.839 41.4763L205.496 41.7995L205.155 42.1265L204.818 42.457L204.484 42.791L204.153 43.1282L203.825 43.4685L203.502 43.8118L203.182 44.1577L202.867 44.5063L202.555 44.8572L202.248 45.2103L201.946 45.5653L201.648 45.9222L201.354 46.2806L201.066 46.6404L200.782 47.0014L200.504 47.3634L200.231 47.7261L199.962 48.0894L199.7 48.453L199.442 48.8167L199.19 49.1804L198.944 49.5437L198.703 49.9064L198.468 50.2684L198.239 50.6294L198.016 50.9892L197.798 51.3476L197.586 51.7042L197.38 52.0591L197.18 52.4118L196.986 52.7621L196.798 53.1099L196.616 53.455L196.44 53.797L196.269 54.1358L196.105 54.4712L195.947 54.8029L195.794 55.1307L195.647 55.4544L195.506 55.7739L195.371 56.0888L195.241 56.3989L195.117 56.7042L194.999 57.0043L194.886 57.299L194.778 57.5883L194.676 57.8718L194.579 58.1493L194.488 58.4208L194.401 58.686L194.319 58.9447L194.242 59.1968L194.17 59.442L194.103 59.6802L194.04 59.9113L193.981 60.1351L193.927 60.3514L193.877 60.5602L193.831 60.7611L193.789 60.9542L193.75 61.1392L193.715 61.3161L193.683 61.4847L193.655 61.6449L193.629 61.7966L193.607 61.9397L193.587 62.0741L193.57 62.1997L193.555 62.3164L193.543 62.4241L193.532 62.5228L193.523 62.6124L193.517 62.6927L193.511 62.7639L193.507 62.8258L193.504 62.8783L193.502 62.9215L193.501 62.9552L193.5 62.9796L193.5 62.9945L193.5 63L193.5 62.996L193.5 62.9826L193.499 62.9598L193.498 62.9275L193.496 62.8858L193.493 62.8348L193.49 62.7744L193.484 62.7047L193.478 62.6258L193.469 62.5377L193.459 62.4405L193.447 62.3342L193.433 62.2189L193.416 62.0947L193.396 61.9617L193.374 61.82L193.35 61.6697L193.322 61.5108L193.29 61.3435L193.256 61.1679L193.218 60.9842L193.176 60.7924L193.13 60.5927L193.081 60.3852L193.027 60.1701L192.97 59.9475L192.907 59.7175L192.841 59.4804L192.769 59.2363L192.693 58.9853L192.612 58.7276L192.526 58.4635L192.436 58.193L192.34 57.9164L192.238 57.6338L192.132 57.3455L192.02 57.0516L191.902 56.7523L191.779 56.4479L191.65 56.1385L191.516 55.8243L191.376 55.5056L191.23 55.1825L191.078 54.8554L190.92 54.5243L190.757 54.1895L190.588 53.8512L190.412 53.5097L190.231 53.1651L190.044 52.8177L189.851 52.4677L189.652 52.1154L189.447 51.7609L189.236 51.4045L189.019 51.0464L188.797 50.6868L188.568 50.326L188.334 49.9641L188.095 49.6015L187.849 49.2382L187.598 48.8747L187.342 48.5109L187.08 48.1473L186.812 47.784L186.54 47.4211L186.262 47.059L185.979 46.6979L185.692 46.3378L185.399 45.9792L185.102 45.622L184.8 45.2667L184.494 44.9133L184.183 44.562L183.868 44.2131L183.549 43.8667L183.226 43.523L182.9 43.1822L182.569 42.8445L182.236 42.51L181.899 42.1789L181.559 41.8513L181.216 41.5275L180.87 41.2076L180.521 40.8917L180.171 40.58L179.818 40.2726L179.463 39.9696L179.106 39.6712L178.748 39.3775L178.388 39.0887L178.027 38.8047L177.665 38.5258L177.303 38.2521L176.939 37.9835L176.576 37.7203L176.212 37.4625L175.848 37.2102L175.485 36.9634L175.122 36.7223L174.76 36.4869L174.399 36.2571L174.039 36.0332L173.681 35.8151L173.324 35.6028L172.969 35.3965L172.616 35.196L172.266 35.0015L171.918 34.8129L171.572 34.6302L171.23 34.4535L170.891 34.2827L170.555 34.1178L170.223 33.9589L169.895 33.8057L169.571 33.6584L169.251 33.5169L168.936 33.3812L168.625 33.2511L168.32 33.1267L168.019 33.0078L167.724 32.8945L167.434 32.7866L167.15 32.684L166.872 32.5867L166.6 32.4946L166.335 32.4075L166.076 32.3255L165.823 32.2483L165.577 32.1758L165.338 32.108L165.107 32.0448L164.882 31.9859L164.665 31.9313L164.456 31.8808L164.254 31.8343L164.061 31.7917L163.875 31.7528L163.698 31.7174L163.528 31.6854L163.367 31.6567L163.215 31.6311L163.071 31.6084L162.936 31.5884L162.81 31.571L162.692 31.5561L162.584 31.5434L162.485 31.5327L162.394 31.524L162.313 31.5169L162.241 31.5114L162.179 31.5072L162.125 31.5042L162.082 31.5021L162.047 31.5009L162.022 31.5002L162.006 31.4999L162 31.4999L162.003 31.4999L162.016 31.4997L162.038 31.4992L162.07 31.4981L162.11 31.4963L162.161 31.4936L162.22 31.4898L162.289 31.4847L162.368 31.4782L162.455 31.47L162.551 31.46L162.657 31.448L162.772 31.4337L162.895 31.4172L163.027 31.398L163.168 31.3762L163.318 31.3515L163.476 31.3238L163.643 31.2929L163.818 31.2587L164.001 31.2209L164.192 31.1794L164.391 31.1342L164.598 31.085L164.812 31.0317L165.034 30.9742L165.264 30.9124L165.5 30.846L165.744 30.7751L165.994 30.6994L166.252 30.6189L166.515 30.5334L166.785 30.4429L167.061 30.3473L167.343 30.2464L167.631 30.1402L167.925 30.0286L168.224 29.9115L168.528 29.7889L168.837 29.6606L169.15 29.5267L169.469 29.387L169.791 29.2416L170.118 29.0903L170.449 28.9332L170.784 28.7702L171.122 28.6013L171.463 28.4265L171.807 28.2457L172.154 28.059L172.504 27.8664L172.856 27.6678L173.211 27.4633L173.567 27.2529L173.925 27.0367L174.284 26.8146L174.645 26.5867L175.007 26.3531L175.369 26.1137L175.733 25.8688L176.096 25.6182L176.46 25.3621L176.824 25.1006L177.187 24.8338L177.55 24.5617L177.912 24.2844L178.273 24.0021L178.633 23.7148L178.992 23.4226L179.349 23.1257L179.705 22.8242L180.059 22.5182L180.41 22.2078L180.759 21.8932L181.106 21.5746L181.45 21.252L181.791 20.9256L182.129 20.5956L182.463 20.2622L182.795 19.9255L183.123 19.5856L183.447 19.2428L183.767 18.8973L184.083 18.5492L184.395 18.1986L184.703 17.8459L185.006 17.4911L185.305 17.1345L185.599 16.7763L185.888 16.4167L186.173 16.0559L186.452 15.6941L186.726 15.3314L186.995 14.9682L187.259 14.6047L187.517 14.241L187.77 13.8773L188.017 13.5139L188.259 13.1511L188.494 12.789L188.725 12.4278L188.949 12.0678L189.168 11.7092L189.38 11.3522L189.587 10.9971L189.788 10.644L189.983 10.2933L190.172 9.94503L190.355 9.59954L190.532 9.25702L190.704 8.91768L190.869 8.58175L191.029 8.24945L191.182 7.921L191.33 7.5966L191.472 7.27648L191.608 6.96085L191.739 6.64991L191.863 6.34387L191.983 6.04293L192.097 5.7473L192.205 5.45718L192.308 5.17275L192.406 4.89422L192.498 4.62176L192.586 4.35557L192.668 4.09583L192.746 3.8427L192.818 3.59637L192.887 3.357L192.95 3.12475L193.009 2.89979L193.064 2.68226L193.115 2.47233L193.162 2.27012L193.205 2.07579L193.244 1.88946L193.28 1.71127L193.312 1.54134L193.341 1.37978L193.367 1.22671L193.39 1.08223L193.41 0.946447L193.427 0.819454L193.443 0.701337L193.456 0.59218L193.466 0.492058L193.475 0.401042L193.482 0.319195L193.488 0.246574L193.492 0.183229L193.495 0.129206L193.498 0.0845418L193.499 0.0492677L193.5 0.0234084L193.5 0.00698197L193.5 0L193.5 0.00246733L193.5 0.0143822L193.501 0.0357364L193.502 0.0665148L193.503 0.106696L193.506 0.156252L193.51 0.215148L193.515 0.283342L193.521 0.360788L193.529 0.447431L193.539 0.54321L193.551 0.64806L193.565 0.761905L193.581 0.884668L193.6 1.01626L193.622 1.1566L193.646 1.30558L193.674 1.46309L193.704 1.62904L193.738 1.8033L193.776 1.98576L193.817 2.17628L193.862 2.37474L193.911 2.581L193.964 2.79492L194.021 3.01634L194.082 3.24513L194.148 3.48112L194.219 3.72415L194.294 3.97405L194.374 4.23065L194.459 4.49379L194.549 4.76327L194.645 5.03892L194.745 5.32056L194.851 5.60798L194.962 5.90101L195.079 6.19943L195.201 6.50306L195.329 6.81168L195.462 7.1251L195.601 7.44311L195.746 7.76548L195.897 8.09203L196.054 8.42252L196.216 8.75674L196.385 9.09447L196.559 9.4355L196.74 9.7796L196.926 10.1266L197.118 10.4761L197.316 10.8281L197.52 11.1823L197.73 11.5384L197.946 11.8963L198.167 12.2556L198.395 12.6163L198.628 12.978L198.867 13.3405L199.111 13.7036L199.361 14.0672L199.617 14.4309L199.878 14.7946L200.145 15.158L200.416 15.5209L200.693 15.8831L200.975 16.2445L201.262 16.6047L201.554 16.9636L201.85 17.321L202.151 17.6766L202.457 18.0303L202.767 18.382L203.081 18.7313L203.4 19.0781L203.722 19.4222L204.048 19.7635L204.378 20.1017L204.711 20.4367L205.047 20.7684L205.387 21.0965L205.73 21.4209L206.075 21.7415L206.423 22.058L206.773 22.3704L207.126 22.6785L207.48 22.9822L207.837 23.2813L208.195 23.5758L208.554 23.8654L208.915 24.1501L209.277 24.4299L209.639 24.7044L210.003 24.9738L210.366 25.2379L210.73 25.4965L211.094 25.7497L211.457 25.9974L211.82 26.2394L212.182 26.4758L212.543 26.7064L212.903 26.9313L213.262 27.1503L213.619 27.3635L213.974 27.5708L214.328 27.7722L214.679 27.9677L215.027 28.1572L215.373 28.3408L215.716 28.5185L216.055 28.6902L216.391 28.856L216.724 29.016L217.053 29.17L217.377 29.3182L217.698 29.4607L218.014 29.5973L218.325 29.7283L218.632 29.8536L218.933 29.9734L219.229 30.0876L219.52 30.1964L219.805 30.2998L220.084 30.3979L220.357 30.4908L220.623 30.5787L220.883 30.6616L221.137 30.7395L221.384 30.8127L221.624 30.8812L221.857 30.9452L222.082 31.0048L222.3 31.0601L222.511 31.1112L222.714 31.1583L222.909 31.2015L223.096 31.2411L223.275 31.277L223.445 31.3095L223.607 31.3387L223.761 31.3648L223.906 31.388L224.043 31.4084L224.17 31.4261L224.289 31.4414L224.399 31.4545L224.5 31.4655L224.592 31.4745L224.674 31.4818L224.748 31.4876L224.812 31.4919L224.867 31.4951L224.912 31.4973L224.948 31.4987L224.975 31.4995L224.992 31.4998L225 31.4999L225 31.4999Z" fill="#E61011"/>
<path fill-rule="evenodd" clip-rule="evenodd" d="M363 76.4999L362.995 76.4999L362.981 76.5001L362.957 76.5007L362.924 76.5019L362.882 76.5038L362.83 76.5067L362.769 76.5107L362.699 76.516L362.619 76.5228L362.53 76.5312L362.432 76.5416L362.325 76.5539L362.209 76.5685L362.084 76.5855L361.951 76.605L361.808 76.6273L361.657 76.6524L361.498 76.6806L361.33 76.7121L361.154 76.7469L360.969 76.7852L360.777 76.8273L360.576 76.8731L360.368 76.923L360.153 76.9769L359.929 77.0351L359.699 77.0977L359.461 77.1647L359.217 77.2364L358.965 77.3128L358.707 77.3941L358.442 77.4804L358.171 77.5717L357.894 77.6682L357.611 77.7699L357.322 77.8769L357.028 77.9894L356.728 78.1074L356.423 78.2309L356.114 78.3601L355.799 78.4949L355.48 78.6355L355.157 78.7819L354.829 78.9341L354.498 79.0921L354.163 79.2561L353.824 79.4259L353.482 79.6017L353.138 79.7834L352.79 79.9711L352.44 80.1646L352.087 80.3642L351.733 80.5696L351.376 80.7809L351.018 80.9981L350.658 81.2211L350.297 81.4499L349.935 81.6844L349.573 81.9247L349.209 82.1705L348.846 82.422L348.482 82.6789L348.118 82.9413L347.755 83.2089L347.392 83.4819L347.03 83.76L346.669 84.0431L346.309 84.3312L345.951 84.6241L345.594 84.9218L345.238 85.224L344.885 85.5307L344.534 85.8418L344.185 86.157L343.839 86.4763L343.496 86.7995L343.155 87.1265L342.818 87.457L342.484 87.791L342.153 88.1282L341.825 88.4685L341.502 88.8118L341.182 89.1577L340.867 89.5063L340.555 89.8572L340.248 90.2103L339.946 90.5653L339.648 90.9222L339.354 91.2806L339.066 91.6404L338.782 92.0014L338.504 92.3634L338.231 92.7261L337.962 93.0894L337.7 93.453L337.442 93.8167L337.19 94.1804L336.944 94.5437L336.703 94.9064L336.468 95.2684L336.239 95.6294L336.016 95.9892L335.798 96.3476L335.586 96.7042L335.38 97.0591L335.18 97.4118L334.986 97.7621L334.798 98.1099L334.616 98.455L334.44 98.797L334.269 99.1358L334.105 99.4712L333.947 99.8029L333.794 100.131L333.647 100.454L333.506 100.774L333.371 101.089L333.241 101.399L333.117 101.704L332.999 102.004L332.886 102.299L332.778 102.588L332.676 102.872L332.579 103.149L332.488 103.421L332.401 103.686L332.319 103.945L332.242 104.197L332.17 104.442L332.103 104.68L332.04 104.911L331.981 105.135L331.927 105.351L331.877 105.56L331.831 105.761L331.789 105.954L331.75 106.139L331.715 106.316L331.683 106.485L331.655 106.645L331.629 106.797L331.607 106.94L331.587 107.074L331.57 107.2L331.555 107.316L331.543 107.424L331.532 107.523L331.523 107.612L331.517 107.693L331.511 107.764L331.507 107.826L331.504 107.878L331.502 107.921L331.501 107.955L331.5 107.98L331.5 107.995L331.5 108L331.5 107.996L331.5 107.983L331.499 107.96L331.498 107.927L331.496 107.886L331.493 107.835L331.49 107.774L331.484 107.705L331.478 107.626L331.469 107.538L331.459 107.44L331.447 107.334L331.433 107.219L331.416 107.095L331.396 106.962L331.374 106.82L331.35 106.67L331.322 106.511L331.29 106.344L331.256 106.168L331.218 105.984L331.176 105.792L331.13 105.593L331.081 105.385L331.027 105.17L330.97 104.947L330.907 104.718L330.841 104.48L330.769 104.236L330.693 103.985L330.612 103.728L330.526 103.463L330.436 103.193L330.34 102.916L330.238 102.634L330.132 102.345L330.02 102.052L329.902 101.752L329.779 101.448L329.65 101.138L329.516 100.824L329.376 100.506L329.23 100.183L329.078 99.8554L328.92 99.5243L328.757 99.1895L328.588 98.8512L328.412 98.5097L328.231 98.1651L328.044 97.8177L327.851 97.4677L327.652 97.1154L327.447 96.7609L327.236 96.4045L327.019 96.0464L326.797 95.6868L326.568 95.326L326.334 94.9641L326.095 94.6015L325.849 94.2382L325.598 93.8747L325.342 93.5109L325.08 93.1473L324.812 92.784L324.54 92.4211L324.262 92.059L323.979 91.6979L323.692 91.3378L323.399 90.9792L323.102 90.622L322.8 90.2667L322.494 89.9133L322.183 89.562L321.868 89.2131L321.549 88.8667L321.226 88.523L320.9 88.1822L320.569 87.8445L320.236 87.51L319.899 87.1789L319.559 86.8513L319.216 86.5275L318.87 86.2076L318.521 85.8917L318.171 85.58L317.818 85.2726L317.463 84.9696L317.106 84.6712L316.748 84.3775L316.388 84.0887L316.027 83.8047L315.665 83.5258L315.303 83.2521L314.939 82.9835L314.576 82.7203L314.212 82.4625L313.848 82.2102L313.485 81.9634L313.122 81.7223L312.76 81.4869L312.399 81.2571L312.039 81.0332L311.681 80.8151L311.324 80.6028L310.969 80.3965L310.616 80.196L310.266 80.0015L309.918 79.8129L309.572 79.6302L309.23 79.4535L308.891 79.2827L308.555 79.1178L308.223 78.9589L307.895 78.8057L307.571 78.6584L307.251 78.5169L306.936 78.3812L306.625 78.2511L306.32 78.1267L306.019 78.0078L305.724 77.8945L305.434 77.7866L305.15 77.684L304.872 77.5867L304.6 77.4946L304.335 77.4075L304.076 77.3255L303.823 77.2483L303.577 77.1758L303.338 77.108L303.107 77.0448L302.882 76.9859L302.665 76.9313L302.456 76.8808L302.254 76.8343L302.061 76.7917L301.875 76.7528L301.698 76.7174L301.528 76.6854L301.367 76.6567L301.215 76.6311L301.071 76.6084L300.936 76.5884L300.81 76.571L300.692 76.5561L300.584 76.5434L300.485 76.5327L300.394 76.524L300.313 76.5169L300.241 76.5114L300.179 76.5072L300.125 76.5042L300.082 76.5021L300.047 76.5009L300.022 76.5002L300.006 76.4999L300 76.4999L300.003 76.4999L300.016 76.4997L300.038 76.4992L300.07 76.4981L300.11 76.4963L300.161 76.4936L300.22 76.4898L300.289 76.4847L300.368 76.4782L300.455 76.47L300.551 76.46L300.657 76.448L300.772 76.4337L300.895 76.4172L301.027 76.398L301.168 76.3762L301.318 76.3515L301.476 76.3238L301.643 76.2929L301.818 76.2587L302.001 76.2209L302.192 76.1794L302.391 76.1342L302.598 76.085L302.812 76.0317L303.034 75.9742L303.264 75.9124L303.5 75.846L303.744 75.7751L303.994 75.6994L304.252 75.6189L304.515 75.5334L304.785 75.4429L305.061 75.3473L305.343 75.2464L305.631 75.1402L305.925 75.0286L306.224 74.9115L306.528 74.7889L306.837 74.6606L307.15 74.5267L307.469 74.387L307.791 74.2416L308.118 74.0903L308.449 73.9332L308.784 73.7702L309.122 73.6013L309.463 73.4265L309.807 73.2457L310.154 73.059L310.504 72.8664L310.856 72.6678L311.211 72.4633L311.567 72.2529L311.925 72.0367L312.284 71.8146L312.645 71.5867L313.007 71.3531L313.369 71.1137L313.733 70.8688L314.096 70.6182L314.46 70.3621L314.824 70.1006L315.187 69.8338L315.55 69.5617L315.912 69.2844L316.273 69.0021L316.633 68.7148L316.992 68.4226L317.349 68.1257L317.705 67.8242L318.059 67.5182L318.41 67.2078L318.759 66.8932L319.106 66.5746L319.45 66.252L319.791 65.9256L320.129 65.5956L320.463 65.2622L320.795 64.9255L321.123 64.5856L321.447 64.2428L321.767 63.8973L322.083 63.5492L322.395 63.1986L322.703 62.8459L323.006 62.4911L323.305 62.1345L323.599 61.7763L323.888 61.4167L324.173 61.0559L324.452 60.6941L324.726 60.3314L324.995 59.9682L325.259 59.6047L325.517 59.241L325.77 58.8773L326.017 58.5139L326.259 58.1511L326.494 57.789L326.725 57.4278L326.949 57.0678L327.168 56.7092L327.38 56.3522L327.587 55.9971L327.788 55.644L327.983 55.2933L328.172 54.945L328.355 54.5995L328.532 54.257L328.704 53.9177L328.869 53.5818L329.029 53.2495L329.182 52.921L329.33 52.5966L329.472 52.2765L329.608 51.9608L329.739 51.6499L329.863 51.3439L329.983 51.0429L330.097 50.7473L330.205 50.4572L330.308 50.1728L330.406 49.8942L330.498 49.6218L330.586 49.3556L330.668 49.0958L330.746 48.8427L330.818 48.5964L330.887 48.357L330.95 48.1247L331.009 47.8998L331.064 47.6823L331.115 47.4723L331.162 47.2701L331.205 47.0758L331.244 46.8895L331.28 46.7113L331.312 46.5413L331.341 46.3798L331.367 46.2267L331.39 46.0822L331.41 45.9464L331.427 45.8195L331.443 45.7013L331.456 45.5922L331.466 45.4921L331.475 45.401L331.482 45.3192L331.488 45.2466L331.492 45.1832L331.495 45.1292L331.498 45.0845L331.499 45.0493L331.5 45.0234L331.5 45.007L331.5 45L331.5 45.0025L331.5 45.0144L331.501 45.0357L331.502 45.0665L331.503 45.1067L331.506 45.1563L331.51 45.2151L331.515 45.2833L331.521 45.3608L331.529 45.4474L331.539 45.5432L331.551 45.6481L331.565 45.7619L331.581 45.8847L331.6 46.0163L331.622 46.1566L331.646 46.3056L331.674 46.4631L331.704 46.629L331.738 46.8033L331.776 46.9858L331.817 47.1763L331.862 47.3747L331.911 47.581L331.964 47.7949L332.021 48.0163L332.082 48.2451L332.148 48.4811L332.219 48.7241L332.294 48.974L332.374 49.2307L332.459 49.4938L332.549 49.7633L332.645 50.0389L332.745 50.3206L332.851 50.608L332.962 50.901L333.079 51.1994L333.201 51.5031L333.329 51.8117L333.462 52.1251L333.601 52.4431L333.746 52.7655L333.897 53.092L334.054 53.4225L334.216 53.7567L334.385 54.0945L334.559 54.4355L334.74 54.7796L334.926 55.1266L335.118 55.4761L335.316 55.8281L335.52 56.1823L335.73 56.5384L335.946 56.8963L336.167 57.2556L336.395 57.6163L336.628 57.978L336.867 58.3405L337.111 58.7036L337.361 59.0672L337.617 59.4309L337.878 59.7946L338.145 60.158L338.416 60.5209L338.693 60.8831L338.975 61.2445L339.262 61.6047L339.554 61.9636L339.85 62.321L340.151 62.6766L340.457 63.0303L340.767 63.382L341.081 63.7313L341.4 64.0781L341.722 64.4222L342.048 64.7635L342.378 65.1017L342.711 65.4367L343.047 65.7684L343.387 66.0965L343.73 66.4209L344.075 66.7415L344.423 67.058L344.773 67.3704L345.126 67.6785L345.48 67.9822L345.837 68.2813L346.195 68.5758L346.554 68.8654L346.915 69.1501L347.277 69.4299L347.639 69.7044L348.003 69.9738L348.366 70.2379L348.73 70.4965L349.094 70.7497L349.457 70.9974L349.82 71.2394L350.182 71.4758L350.543 71.7064L350.903 71.9313L351.262 72.1503L351.619 72.3635L351.974 72.5708L352.328 72.7722L352.679 72.9677L353.027 73.1572L353.373 73.3408L353.716 73.5185L354.055 73.6902L354.391 73.856L354.724 74.016L355.053 74.17L355.377 74.3182L355.698 74.4607L356.014 74.5973L356.325 74.7283L356.632 74.8536L356.933 74.9734L357.229 75.0876L357.52 75.1964L357.805 75.2998L358.084 75.3979L358.357 75.4908L358.623 75.5787L358.883 75.6616L359.137 75.7395L359.384 75.8127L359.624 75.8812L359.857 75.9452L360.082 76.0048L360.3 76.0601L360.511 76.1112L360.714 76.1583L360.909 76.2015L361.096 76.2411L361.275 76.277L361.445 76.3095L361.607 76.3387L361.761 76.3648L361.906 76.388L362.043 76.4084L362.17 76.4261L362.289 76.4414L362.399 76.4545L362.5 76.4655L362.592 76.4745L362.674 76.4818L362.748 76.4876L362.812 76.4919L362.867 76.4951L362.912 76.4973L362.948 76.4987L362.975 76.4995L362.992 76.4998L363 76.4999L363 76.4999Z" fill="white"/>
<path fill-rule="evenodd" clip-rule="evenodd" d="M267 139.5L266.995 139.5L266.981 139.5L266.957 139.501L266.924 139.502L266.882 139.504L266.83 139.507L266.769 139.511L266.699 139.516L266.619 139.523L266.53 139.531L266.432 139.542L266.325 139.554L266.209 139.569L266.084 139.585L265.951 139.605L265.808 139.627L265.657 139.652L265.498 139.681L265.33 139.712L265.154 139.747L264.969 139.785L264.777 139.827L264.576 139.873L264.368 139.923L264.153 139.977L263.929 140.035L263.699 140.098L263.461 140.165L263.217 140.236L262.965 140.313L262.707 140.394L262.442 140.48L262.171 140.572L261.894 140.668L261.611 140.77L261.322 140.877L261.028 140.989L260.728 141.107L260.423 141.231L260.114 141.36L259.799 141.495L259.48 141.636L259.157 141.782L258.829 141.934L258.498 142.092L258.163 142.256L257.824 142.426L257.482 142.602L257.138 142.783L256.79 142.971L256.44 143.165L256.087 143.364L255.733 143.57L255.376 143.781L255.018 143.998L254.658 144.221L254.297 144.45L253.935 144.684L253.573 144.925L253.209 145.171L252.846 145.422L252.482 145.679L252.118 145.941L251.755 146.209L251.392 146.482L251.03 146.76L250.669 147.043L250.309 147.331L249.951 147.624L249.594 147.922L249.238 148.224L248.885 148.531L248.534 148.842L248.185 149.157L247.839 149.476L247.496 149.8L247.155 150.126L246.818 150.457L246.484 150.791L246.153 151.128L245.825 151.469L245.502 151.812L245.182 152.158L244.867 152.506L244.555 152.857L244.248 153.21L243.946 153.565L243.648 153.922L243.354 154.281L243.066 154.64L242.782 155.001L242.504 155.363L242.231 155.726L241.962 156.089L241.7 156.453L241.442 156.817L241.19 157.18L240.944 157.544L240.703 157.906L240.468 158.268L240.239 158.629L240.016 158.989L239.798 159.348L239.586 159.704L239.38 160.059L239.18 160.412L238.986 160.762L238.798 161.11L238.616 161.455L238.44 161.797L238.269 162.136L238.105 162.471L237.947 162.803L237.794 163.131L237.647 163.454L237.506 163.774L237.371 164.089L237.241 164.399L237.117 164.704L236.999 165.004L236.886 165.299L236.778 165.588L236.676 165.872L236.579 166.149L236.488 166.421L236.401 166.686L236.319 166.945L236.242 167.197L236.17 167.442L236.103 167.68L236.04 167.911L235.981 168.135L235.927 168.351L235.877 168.56L235.831 168.761L235.789 168.954L235.75 169.139L235.715 169.316L235.683 169.485L235.655 169.645L235.629 169.797L235.607 169.94L235.587 170.074L235.57 170.2L235.555 170.316L235.543 170.424L235.532 170.523L235.523 170.612L235.517 170.693L235.511 170.764L235.507 170.826L235.504 170.878L235.502 170.921L235.501 170.955L235.5 170.98L235.5 170.995L235.5 171L235.5 170.996L235.5 170.983L235.499 170.96L235.498 170.927L235.496 170.886L235.493 170.835L235.49 170.774L235.484 170.705L235.478 170.626L235.469 170.538L235.459 170.44L235.447 170.334L235.433 170.219L235.416 170.095L235.396 169.962L235.374 169.82L235.35 169.67L235.322 169.511L235.29 169.344L235.256 169.168L235.218 168.984L235.176 168.792L235.13 168.593L235.081 168.385L235.027 168.17L234.97 167.947L234.907 167.718L234.841 167.48L234.769 167.236L234.693 166.985L234.612 166.728L234.526 166.463L234.436 166.193L234.34 165.916L234.238 165.634L234.132 165.345L234.02 165.052L233.902 164.752L233.779 164.448L233.65 164.138L233.516 163.824L233.376 163.506L233.23 163.183L233.078 162.855L232.92 162.524L232.757 162.189L232.588 161.851L232.412 161.51L232.231 161.165L232.044 160.818L231.851 160.468L231.652 160.115L231.447 159.761L231.236 159.404L231.019 159.046L230.797 158.687L230.568 158.326L230.334 157.964L230.095 157.601L229.849 157.238L229.598 156.875L229.342 156.511L229.08 156.147L228.812 155.784L228.54 155.421L228.262 155.059L227.979 154.698L227.692 154.338L227.399 153.979L227.102 153.622L226.8 153.267L226.494 152.913L226.183 152.562L225.868 152.213L225.549 151.867L225.226 151.523L224.9 151.182L224.569 150.844L224.236 150.51L223.899 150.179L223.559 149.851L223.216 149.528L222.87 149.208L222.521 148.892L222.171 148.58L221.818 148.273L221.463 147.97L221.106 147.671L220.748 147.378L220.388 147.089L220.027 146.805L219.665 146.526L219.303 146.252L218.939 145.984L218.576 145.72L218.212 145.463L217.848 145.21L217.485 144.963L217.122 144.722L216.76 144.487L216.399 144.257L216.039 144.033L215.681 143.815L215.324 143.603L214.969 143.396L214.616 143.196L214.266 143.001L213.918 142.813L213.572 142.63L213.23 142.454L212.891 142.283L212.555 142.118L212.223 141.959L211.895 141.806L211.571 141.658L211.251 141.517L210.936 141.381L210.625 141.251L210.32 141.127L210.019 141.008L209.724 140.894L209.434 140.787L209.15 140.684L208.872 140.587L208.6 140.495L208.335 140.408L208.076 140.325L207.823 140.248L207.577 140.176L207.338 140.108L207.107 140.045L206.882 139.986L206.665 139.931L206.456 139.881L206.254 139.834L206.061 139.792L205.875 139.753L205.698 139.717L205.528 139.685L205.367 139.657L205.215 139.631L205.071 139.608L204.936 139.588L204.81 139.571L204.692 139.556L204.584 139.543L204.485 139.533L204.394 139.524L204.313 139.517L204.241 139.511L204.179 139.507L204.125 139.504L204.082 139.502L204.047 139.501L204.022 139.5L204.006 139.5L204 139.5L204.003 139.5L204.016 139.5L204.038 139.499L204.07 139.498L204.11 139.496L204.161 139.494L204.22 139.49L204.289 139.485L204.368 139.478L204.455 139.47L204.551 139.46L204.657 139.448L204.772 139.434L204.895 139.417L205.027 139.398L205.168 139.376L205.318 139.352L205.476 139.324L205.643 139.293L205.818 139.259L206.001 139.221L206.192 139.179L206.391 139.134L206.598 139.085L206.812 139.032L207.034 138.974L207.264 138.912L207.5 138.846L207.744 138.775L207.994 138.699L208.252 138.619L208.515 138.533L208.785 138.443L209.061 138.347L209.343 138.246L209.631 138.14L209.925 138.029L210.224 137.912L210.528 137.789L210.837 137.661L211.15 137.527L211.469 137.387L211.791 137.242L212.118 137.09L212.449 136.933L212.784 136.77L213.122 136.601L213.463 136.426L213.807 136.246L214.154 136.059L214.504 135.866L214.856 135.668L215.211 135.463L215.567 135.253L215.925 135.037L216.284 134.815L216.645 134.587L217.007 134.353L217.369 134.114L217.733 133.869L218.096 133.618L218.46 133.362L218.824 133.101L219.187 132.834L219.55 132.562L219.912 132.284L220.273 132.002L220.633 131.715L220.992 131.423L221.349 131.126L221.705 130.824L222.059 130.518L222.41 130.208L222.759 129.893L223.106 129.575L223.45 129.252L223.791 128.926L224.129 128.596L224.463 128.262L224.795 127.925L225.123 127.586L225.447 127.243L225.767 126.897L226.083 126.549L226.395 126.199L226.703 125.846L227.006 125.491L227.305 125.135L227.599 124.776L227.888 124.417L228.173 124.056L228.452 123.694L228.726 123.331L228.995 122.968L229.259 122.605L229.517 122.241L229.77 121.877L230.017 121.514L230.259 121.151L230.494 120.789L230.725 120.428L230.949 120.068L231.168 119.709L231.38 119.352L231.587 118.997L231.788 118.644L231.983 118.293L232.172 117.945L232.355 117.6L232.532 117.257L232.704 116.918L232.869 116.582L233.029 116.249L233.182 115.921L233.33 115.597L233.472 115.276L233.608 114.961L233.739 114.65L233.863 114.344L233.983 114.043L234.097 113.747L234.205 113.457L234.308 113.173L234.406 112.894L234.498 112.622L234.586 112.356L234.668 112.096L234.746 111.843L234.818 111.596L234.887 111.357L234.95 111.125L235.009 110.9L235.064 110.682L235.115 110.472L235.162 110.27L235.205 110.076L235.244 109.889L235.28 109.711L235.312 109.541L235.341 109.38L235.367 109.227L235.39 109.082L235.41 108.946L235.427 108.819L235.443 108.701L235.456 108.592L235.466 108.492L235.475 108.401L235.482 108.319L235.488 108.247L235.492 108.183L235.495 108.129L235.498 108.085L235.499 108.049L235.5 108.023L235.5 108.007L235.5 108L235.5 108.002L235.5 108.014L235.501 108.036L235.502 108.067L235.503 108.107L235.506 108.156L235.51 108.215L235.515 108.283L235.521 108.361L235.529 108.447L235.539 108.543L235.551 108.648L235.565 108.762L235.581 108.885L235.6 109.016L235.622 109.157L235.646 109.306L235.674 109.463L235.704 109.629L235.738 109.803L235.776 109.986L235.817 110.176L235.862 110.375L235.911 110.581L235.964 110.795L236.021 111.016L236.082 111.245L236.148 111.481L236.219 111.724L236.294 111.974L236.374 112.231L236.459 112.494L236.549 112.763L236.645 113.039L236.745 113.321L236.851 113.608L236.962 113.901L237.079 114.199L237.201 114.503L237.329 114.812L237.462 115.125L237.601 115.443L237.746 115.765L237.897 116.092L238.054 116.423L238.216 116.757L238.385 117.094L238.559 117.435L238.74 117.78L238.926 118.127L239.118 118.476L239.316 118.828L239.52 119.182L239.73 119.538L239.946 119.896L240.167 120.256L240.395 120.616L240.628 120.978L240.867 121.34L241.111 121.704L241.361 122.067L241.617 122.431L241.878 122.795L242.145 123.158L242.416 123.521L242.693 123.883L242.975 124.244L243.262 124.605L243.554 124.964L243.85 125.321L244.151 125.677L244.457 126.03L244.767 126.382L245.081 126.731L245.4 127.078L245.722 127.422L246.048 127.763L246.378 128.102L246.711 128.437L247.047 128.768L247.387 129.097L247.73 129.421L248.075 129.741L248.423 130.058L248.773 130.37L249.126 130.679L249.48 130.982L249.837 131.281L250.195 131.576L250.554 131.865L250.915 132.15L251.277 132.43L251.639 132.704L252.003 132.974L252.366 133.238L252.73 133.497L253.094 133.75L253.457 133.997L253.82 134.239L254.182 134.476L254.543 134.706L254.903 134.931L255.262 135.15L255.619 135.364L255.974 135.571L256.328 135.772L256.679 135.968L257.027 136.157L257.373 136.341L257.716 136.518L258.055 136.69L258.391 136.856L258.724 137.016L259.053 137.17L259.377 137.318L259.698 137.461L260.014 137.597L260.325 137.728L260.632 137.854L260.933 137.973L261.229 138.088L261.52 138.196L261.805 138.3L262.084 138.398L262.357 138.491L262.623 138.579L262.883 138.662L263.137 138.74L263.384 138.813L263.624 138.881L263.857 138.945L264.082 139.005L264.3 139.06L264.511 139.111L264.714 139.158L264.909 139.202L265.096 139.241L265.275 139.277L265.445 139.309L265.607 139.339L265.761 139.365L265.906 139.388L266.043 139.408L266.17 139.426L266.289 139.441L266.399 139.454L266.5 139.465L266.592 139.475L266.674 139.482L266.748 139.488L266.812 139.492L266.867 139.495L266.912 139.497L266.948 139.499L266.975 139.499L266.992 139.5L267 139.5L267 139.5Z" fill="#F94C2C"/>
</svg>
