<svg width="150" height="150" viewBox="0 0 150 150" fill="none" xmlns="http://www.w3.org/2000/svg">
<rect width="150" height="150" fill="#D9D9D9"/>
<path d="M32 76.5C32 70.7875 33.1252 65.1309 35.3112 59.8533C37.4973 54.5756 40.7015 49.7802 44.7409 45.7409C48.7802 41.7015 53.5756 38.4973 58.8533 36.3112C64.1309 34.1252 69.7875 33 75.5 33" stroke="#DC1B1B" stroke-width="28"/>
<path d="M75.5 33C81.2125 33 86.8691 34.1252 92.1467 36.3112C97.4244 38.4973 102.22 41.7015 106.259 45.7409C110.298 49.7802 113.503 54.5756 115.689 59.8533C117.875 65.1309 119 70.7875 119 76.5" stroke="#C28D05" stroke-width="28"/>
<path d="M87.0147 76.5C87.0147 82.2125 85.8895 87.8691 83.7035 93.1467C81.5174 98.4244 78.3132 103.22 74.2739 107.259C70.2345 111.298 65.4391 114.503 60.1614 116.689C54.8838 118.875 49.2272 120 43.5147 120" stroke="#4B5775" stroke-width="28"/>
<path d="M107.485 120C101.773 120 96.1162 118.875 90.8386 116.689C85.5609 114.503 80.7655 111.298 76.7261 107.259C72.6868 103.22 69.4826 98.4244 67.2965 93.1467C65.1105 87.8691 63.9853 82.2125 63.9853 76.5" stroke="#4B7575" stroke-width="28"/>
</svg>
