<svg width="150" height="150" viewBox="0 0 150 150" fill="none" xmlns="http://www.w3.org/2000/svg">
<rect width="150" height="150" fill="#D9D9D9"/>
<path d="M55 102C51.126 102 47.2899 101.237 43.7108 99.7543C40.1317 98.2718 36.8797 96.0989 34.1403 93.3595C31.401 90.6202 29.2281 87.3681 27.7456 83.789C26.263 80.2099 25.5 76.3739 25.5 72.4999" stroke="#DC1B1B" stroke-width="15"/>
<path d="M25.5 72.4999C25.5 68.6259 26.263 64.7898 27.7456 61.2107C29.2281 57.6316 31.401 54.3796 34.1403 51.6402C36.8797 48.9009 40.1317 46.7279 43.7108 45.2454C47.2899 43.7629 51.126 42.9999 55 42.9999" stroke="#C28D05" stroke-width="15"/>
<path d="M94.9117 42.9999C98.7857 42.9999 102.622 43.7629 106.201 45.2454C109.78 46.7279 113.032 48.9009 115.771 51.6402C118.511 54.3796 120.684 57.6316 122.166 61.2107C123.649 64.7898 124.412 68.6259 124.412 72.4999" stroke="#DC1B1B" stroke-width="15"/>
<path d="M124.412 72.4999C124.412 76.3739 123.649 80.2099 122.166 83.789C120.684 87.3681 118.511 90.6202 115.771 93.3595C113.032 96.0989 109.78 98.2718 106.201 99.7543C102.622 101.237 98.7857 102 94.9117 102" stroke="#C28D05" stroke-width="15"/>
<path d="M55 64.6912C58.874 64.6912 62.7101 65.4542 66.2892 66.9367C69.8683 68.4192 73.1203 70.5922 75.8597 73.3315C78.599 76.0708 80.7719 79.3229 82.2544 82.902C83.737 86.4811 84.5 90.3172 84.5 94.1912" stroke="#4B5775" stroke-width="5"/>
<path d="M84.5 50.8088C84.5 54.6828 83.737 58.5189 82.2544 62.098C80.7719 65.6771 78.599 68.9292 75.8597 71.6685C73.1203 74.4078 69.8683 76.5808 66.2892 78.0633C62.7101 79.5458 58.874 80.3088 55 80.3088" stroke="#4B7575" stroke-width="5"/>
<path d="M94.9117 80.3088C91.0377 80.3088 87.2017 79.5458 83.6226 78.0633C80.0435 76.5808 76.7914 74.4078 74.0521 71.6685C71.3128 68.9292 69.1398 65.6771 67.6573 62.098C66.1748 58.5189 65.4117 54.6828 65.4117 50.8088" stroke="#4B5775" stroke-width="5"/>
<path d="M65.4117 94.1912C65.4117 90.3172 66.1748 86.4811 67.6573 82.902C69.1398 79.3229 71.3128 76.0708 74.0521 73.3315C76.7914 70.5922 80.0435 68.4192 83.6226 66.9367C87.2017 65.4542 91.0377 64.6912 94.9117 64.6912" stroke="#4B7575" stroke-width="5"/>
</svg>
